<mxfile host="app.diagrams.net" modified="2021-07-23T07:30:59.468Z" agent="5.0 (Windows NT 10.0; Win64; x64) AppleWebKit/537.36 (KHTML, like Gecko) Chrome/91.0.4472.164 Safari/537.36" etag="_I4Iijw-sSUEVmqlKvhJ" version="14.9.2" type="github">
  <diagram id="RYdXmEAZYq84uBM2kZKI" name="Page-1">
    <mxGraphModel dx="1564" dy="2114" grid="1" gridSize="10" guides="1" tooltips="1" connect="1" arrows="1" fold="1" page="1" pageScale="1" pageWidth="850" pageHeight="1100" background="#FFFFFF" math="1" shadow="0">
      <root>
        <mxCell id="0" />
        <mxCell id="1" parent="0" />
        <mxCell id="HPVV4rrdQAXOIrdfXkmh-1" value="&lt;h3&gt;&lt;font face=&quot;Verdana&quot;&gt;Data Analysis using Python&lt;/font&gt;&lt;/h3&gt;" style="ellipse;whiteSpace=wrap;html=1;labelBackgroundColor=none;fillColor=#dae8fc;strokeColor=#6c8ebf;" parent="1" vertex="1">
          <mxGeometry x="320" y="200" width="130" height="80" as="geometry" />
        </mxCell>
        <mxCell id="HPVV4rrdQAXOIrdfXkmh-2" value="" style="curved=1;endArrow=classic;html=1;exitX=0;exitY=0;exitDx=0;exitDy=0;entryX=1;entryY=1;entryDx=0;entryDy=0;" parent="1" source="HPVV4rrdQAXOIrdfXkmh-1" target="HPVV4rrdQAXOIrdfXkmh-19" edge="1">
          <mxGeometry width="50" height="50" relative="1" as="geometry">
            <mxPoint x="280" y="270" as="sourcePoint" />
            <mxPoint x="160" y="160" as="targetPoint" />
            <Array as="points" />
          </mxGeometry>
        </mxCell>
        <mxCell id="HPVV4rrdQAXOIrdfXkmh-4" value="" style="endArrow=classic;html=1;entryX=0;entryY=0.5;entryDx=0;entryDy=0;" parent="1" target="HPVV4rrdQAXOIrdfXkmh-7" edge="1">
          <mxGeometry width="50" height="50" relative="1" as="geometry">
            <mxPoint x="130" y="50" as="sourcePoint" />
            <mxPoint x="180" y="-30" as="targetPoint" />
            <Array as="points" />
          </mxGeometry>
        </mxCell>
        <mxCell id="HPVV4rrdQAXOIrdfXkmh-5" value="" style="endArrow=classic;html=1;exitX=1;exitY=0.5;exitDx=0;exitDy=0;entryX=0;entryY=0.5;entryDx=0;entryDy=0;" parent="1" target="HPVV4rrdQAXOIrdfXkmh-10" edge="1">
          <mxGeometry width="50" height="50" relative="1" as="geometry">
            <mxPoint x="129.99999999999318" y="50" as="sourcePoint" />
            <mxPoint x="190" y="60" as="targetPoint" />
            <Array as="points" />
          </mxGeometry>
        </mxCell>
        <mxCell id="HPVV4rrdQAXOIrdfXkmh-6" value="" style="endArrow=classic;html=1;exitX=1;exitY=0.5;exitDx=0;exitDy=0;entryX=0;entryY=0.5;entryDx=0;entryDy=0;" parent="1" target="HPVV4rrdQAXOIrdfXkmh-12" edge="1">
          <mxGeometry width="50" height="50" relative="1" as="geometry">
            <mxPoint x="129.99999999999318" y="50" as="sourcePoint" />
            <mxPoint x="170" y="100" as="targetPoint" />
            <Array as="points" />
          </mxGeometry>
        </mxCell>
        <mxCell id="HPVV4rrdQAXOIrdfXkmh-7" value="Data Types" style="rounded=1;whiteSpace=wrap;html=1;fillColor=#f8cecc;strokeColor=#b85450;" parent="1" vertex="1">
          <mxGeometry x="190" y="-60" width="120" height="30" as="geometry" />
        </mxCell>
        <mxCell id="HPVV4rrdQAXOIrdfXkmh-8" value="" style="shape=flexArrow;endArrow=classic;html=1;exitX=1;exitY=0.5;exitDx=0;exitDy=0;" parent="1" source="HPVV4rrdQAXOIrdfXkmh-7" edge="1">
          <mxGeometry width="50" height="50" relative="1" as="geometry">
            <mxPoint x="300" y="-45.5" as="sourcePoint" />
            <mxPoint x="370" y="-45" as="targetPoint" />
          </mxGeometry>
        </mxCell>
        <mxCell id="HPVV4rrdQAXOIrdfXkmh-10" value="Statistical Summary" style="rounded=1;whiteSpace=wrap;html=1;fillColor=#f8cecc;strokeColor=#b85450;" parent="1" vertex="1">
          <mxGeometry x="190" y="10" width="120" height="30" as="geometry" />
        </mxCell>
        <mxCell id="HPVV4rrdQAXOIrdfXkmh-11" value="" style="shape=flexArrow;endArrow=classic;html=1;exitX=1;exitY=0.5;exitDx=0;exitDy=0;" parent="1" source="HPVV4rrdQAXOIrdfXkmh-10" edge="1">
          <mxGeometry width="50" height="50" relative="1" as="geometry">
            <mxPoint x="310" y="64.5" as="sourcePoint" />
            <mxPoint x="380" y="25" as="targetPoint" />
          </mxGeometry>
        </mxCell>
        <mxCell id="HPVV4rrdQAXOIrdfXkmh-12" value="Summary of Top and Bottom 30 enteries" style="rounded=1;whiteSpace=wrap;html=1;fillColor=#f8cecc;strokeColor=#b85450;" parent="1" vertex="1">
          <mxGeometry x="190" y="80" width="120" height="30" as="geometry" />
        </mxCell>
        <mxCell id="HPVV4rrdQAXOIrdfXkmh-13" value="" style="shape=flexArrow;endArrow=classic;html=1;" parent="1" edge="1">
          <mxGeometry width="50" height="50" relative="1" as="geometry">
            <mxPoint x="310" y="95" as="sourcePoint" />
            <mxPoint x="370" y="95" as="targetPoint" />
          </mxGeometry>
        </mxCell>
        <mxCell id="HPVV4rrdQAXOIrdfXkmh-16" value="df.dtypes" style="ellipse;shape=cloud;whiteSpace=wrap;html=1;fillColor=#fff2cc;strokeColor=#d6b656;" parent="1" vertex="1">
          <mxGeometry x="360" y="-80" width="110" height="70" as="geometry" />
        </mxCell>
        <mxCell id="HPVV4rrdQAXOIrdfXkmh-17" value="&lt;font face=&quot;Verdana&quot;&gt;df.describe(include=&quot;all&quot;)&lt;/font&gt;" style="ellipse;shape=cloud;whiteSpace=wrap;html=1;fillColor=#fff2cc;strokeColor=#d6b656;" parent="1" vertex="1">
          <mxGeometry x="360" y="-20" width="240" height="80" as="geometry" />
        </mxCell>
        <mxCell id="HPVV4rrdQAXOIrdfXkmh-18" value="df.info()" style="ellipse;shape=cloud;whiteSpace=wrap;html=1;fillColor=#fff2cc;strokeColor=#d6b656;" parent="1" vertex="1">
          <mxGeometry x="360" y="60" width="110" height="70" as="geometry" />
        </mxCell>
        <mxCell id="HPVV4rrdQAXOIrdfXkmh-19" value="&lt;font face=&quot;Verdana&quot;&gt;1. Basic Insights&lt;/font&gt;" style="ellipse;whiteSpace=wrap;html=1;fillColor=#d5e8d4;strokeColor=#82b366;" parent="1" vertex="1">
          <mxGeometry x="10" y="10" width="120" height="80" as="geometry" />
        </mxCell>
        <mxCell id="HPVV4rrdQAXOIrdfXkmh-20" value="" style="endArrow=classic;html=1;entryX=0;entryY=0.5;entryDx=0;entryDy=0;" parent="1" target="HPVV4rrdQAXOIrdfXkmh-21" edge="1">
          <mxGeometry width="50" height="50" relative="1" as="geometry">
            <mxPoint x="130" y="50" as="sourcePoint" />
            <mxPoint x="180" y="-30" as="targetPoint" />
            <Array as="points" />
          </mxGeometry>
        </mxCell>
        <mxCell id="HPVV4rrdQAXOIrdfXkmh-21" value="Data Types" style="rounded=1;whiteSpace=wrap;html=1;fillColor=#f8cecc;strokeColor=#b85450;" parent="1" vertex="1">
          <mxGeometry x="190" y="-60" width="120" height="30" as="geometry" />
        </mxCell>
        <mxCell id="HPVV4rrdQAXOIrdfXkmh-22" value="" style="endArrow=classic;html=1;exitX=1;exitY=0.5;exitDx=0;exitDy=0;entryX=0;entryY=0.5;entryDx=0;entryDy=0;" parent="1" source="HPVV4rrdQAXOIrdfXkmh-19" edge="1">
          <mxGeometry width="50" height="50" relative="1" as="geometry">
            <mxPoint x="220" y="60" as="sourcePoint" />
            <mxPoint x="190" y="25" as="targetPoint" />
            <Array as="points" />
          </mxGeometry>
        </mxCell>
        <mxCell id="HPVV4rrdQAXOIrdfXkmh-27" value="Data Normalization" style="rounded=1;whiteSpace=wrap;html=1;fillColor=#f8cecc;strokeColor=#b85450;" parent="1" vertex="1">
          <mxGeometry x="465" y="330" width="120" height="30" as="geometry" />
        </mxCell>
        <mxCell id="htr4k9ovNGDv8slnHkLP-1" value="" style="edgeStyle=orthogonalEdgeStyle;rounded=0;orthogonalLoop=1;jettySize=auto;html=1;fontColor=#000000;exitX=0.5;exitY=1;exitDx=0;exitDy=0;entryX=0.5;entryY=0;entryDx=0;entryDy=0;" edge="1" parent="1" source="HPVV4rrdQAXOIrdfXkmh-1" target="HPVV4rrdQAXOIrdfXkmh-34">
          <mxGeometry relative="1" as="geometry" />
        </mxCell>
        <mxCell id="htr4k9ovNGDv8slnHkLP-3" value="" style="edgeStyle=orthogonalEdgeStyle;rounded=0;orthogonalLoop=1;jettySize=auto;html=1;fontColor=#000000;entryX=0.5;entryY=0;entryDx=0;entryDy=0;" edge="1" parent="1" source="HPVV4rrdQAXOIrdfXkmh-34" target="htr4k9ovNGDv8slnHkLP-4">
          <mxGeometry relative="1" as="geometry">
            <mxPoint x="385" y="575" as="targetPoint" />
          </mxGeometry>
        </mxCell>
        <mxCell id="HPVV4rrdQAXOIrdfXkmh-34" value="&lt;font face=&quot;Verdana&quot;&gt;2. Data Wrangling/&lt;br&gt;Data Preprocessing/&lt;br&gt;Data Cleaning&lt;br&gt;&lt;/font&gt;" style="ellipse;whiteSpace=wrap;html=1;fillColor=#d5e8d4;strokeColor=#82b366;" parent="1" vertex="1">
          <mxGeometry x="310" y="390" width="150" height="90" as="geometry" />
        </mxCell>
        <mxCell id="HPVV4rrdQAXOIrdfXkmh-35" value="" style="endArrow=classic;html=1;exitX=0;exitY=0.5;exitDx=0;exitDy=0;entryX=1;entryY=0.5;entryDx=0;entryDy=0;" parent="1" source="HPVV4rrdQAXOIrdfXkmh-34" target="HPVV4rrdQAXOIrdfXkmh-36" edge="1">
          <mxGeometry width="50" height="50" relative="1" as="geometry">
            <mxPoint x="450" y="510" as="sourcePoint" />
            <mxPoint x="250" y="470" as="targetPoint" />
            <Array as="points" />
          </mxGeometry>
        </mxCell>
        <mxCell id="HPVV4rrdQAXOIrdfXkmh-76" value="" style="edgeStyle=orthogonalEdgeStyle;rounded=0;orthogonalLoop=1;jettySize=auto;html=1;fontColor=#000000;" parent="1" source="HPVV4rrdQAXOIrdfXkmh-36" target="HPVV4rrdQAXOIrdfXkmh-75" edge="1">
          <mxGeometry relative="1" as="geometry" />
        </mxCell>
        <mxCell id="HPVV4rrdQAXOIrdfXkmh-36" value="Dealing with Missing Values" style="rounded=1;whiteSpace=wrap;html=1;fillColor=#f8cecc;strokeColor=#b85450;" parent="1" vertex="1">
          <mxGeometry x="155" y="460" width="120" height="30" as="geometry" />
        </mxCell>
        <mxCell id="HPVV4rrdQAXOIrdfXkmh-37" value="" style="endArrow=classic;html=1;exitX=1;exitY=0;exitDx=0;exitDy=0;entryX=0;entryY=0.5;entryDx=0;entryDy=0;" parent="1" source="HPVV4rrdQAXOIrdfXkmh-34" edge="1" target="HPVV4rrdQAXOIrdfXkmh-27">
          <mxGeometry width="50" height="50" relative="1" as="geometry">
            <mxPoint x="530" y="520" as="sourcePoint" />
            <mxPoint x="500" y="485" as="targetPoint" />
            <Array as="points" />
          </mxGeometry>
        </mxCell>
        <mxCell id="HPVV4rrdQAXOIrdfXkmh-53" value="" style="endArrow=classic;html=1;exitX=0.5;exitY=1;exitDx=0;exitDy=0;entryX=0.88;entryY=0.25;entryDx=0;entryDy=0;entryPerimeter=0;" parent="1" source="HPVV4rrdQAXOIrdfXkmh-36" target="HPVV4rrdQAXOIrdfXkmh-55" edge="1">
          <mxGeometry width="50" height="50" relative="1" as="geometry">
            <mxPoint x="150" y="505" as="sourcePoint" />
            <mxPoint x="70" y="530" as="targetPoint" />
            <Array as="points" />
          </mxGeometry>
        </mxCell>
        <mxCell id="HPVV4rrdQAXOIrdfXkmh-54" value="" style="endArrow=classic;html=1;exitX=0.5;exitY=1;exitDx=0;exitDy=0;entryX=0.625;entryY=0.2;entryDx=0;entryDy=0;entryPerimeter=0;" parent="1" source="HPVV4rrdQAXOIrdfXkmh-36" edge="1" target="HPVV4rrdQAXOIrdfXkmh-56">
          <mxGeometry width="50" height="50" relative="1" as="geometry">
            <mxPoint x="180" y="560" as="sourcePoint" />
            <mxPoint x="190" y="550" as="targetPoint" />
            <Array as="points" />
          </mxGeometry>
        </mxCell>
        <mxCell id="HPVV4rrdQAXOIrdfXkmh-55" value="Check with data collection source" style="ellipse;shape=cloud;whiteSpace=wrap;html=1;labelBackgroundColor=none;fillColor=#fff2cc;strokeColor=#d6b656;" parent="1" vertex="1">
          <mxGeometry y="510" width="140" height="80" as="geometry" />
        </mxCell>
        <mxCell id="HPVV4rrdQAXOIrdfXkmh-56" value="Drop Missing Values" style="ellipse;shape=cloud;whiteSpace=wrap;html=1;labelBackgroundColor=none;fillColor=#fff2cc;strokeColor=#d6b656;" parent="1" vertex="1">
          <mxGeometry x="120" y="540" width="160" height="80" as="geometry" />
        </mxCell>
        <mxCell id="HPVV4rrdQAXOIrdfXkmh-57" value="" style="endArrow=classic;html=1;fontColor=#000000;exitX=0.55;exitY=0.95;exitDx=0;exitDy=0;exitPerimeter=0;entryX=1;entryY=0.5;entryDx=0;entryDy=0;" parent="1" source="HPVV4rrdQAXOIrdfXkmh-56" edge="1" target="HPVV4rrdQAXOIrdfXkmh-58">
          <mxGeometry width="50" height="50" relative="1" as="geometry">
            <mxPoint x="170" y="670" as="sourcePoint" />
            <mxPoint x="130" y="660" as="targetPoint" />
          </mxGeometry>
        </mxCell>
        <mxCell id="HPVV4rrdQAXOIrdfXkmh-58" value="Drop a variable" style="shape=hexagon;perimeter=hexagonPerimeter2;whiteSpace=wrap;html=1;fixedSize=1;labelBackgroundColor=none;fillColor=#e1d5e7;strokeColor=#9673a6;" parent="1" vertex="1">
          <mxGeometry x="75" y="640" width="80" height="50" as="geometry" />
        </mxCell>
        <mxCell id="HPVV4rrdQAXOIrdfXkmh-59" value="" style="endArrow=classic;html=1;fontColor=#000000;exitX=0.55;exitY=0.95;exitDx=0;exitDy=0;exitPerimeter=0;entryX=0;entryY=0.5;entryDx=0;entryDy=0;" parent="1" source="HPVV4rrdQAXOIrdfXkmh-56" target="HPVV4rrdQAXOIrdfXkmh-60" edge="1">
          <mxGeometry width="50" height="50" relative="1" as="geometry">
            <mxPoint x="200" y="620" as="sourcePoint" />
            <mxPoint x="260" y="660" as="targetPoint" />
          </mxGeometry>
        </mxCell>
        <mxCell id="HPVV4rrdQAXOIrdfXkmh-60" value="Drop an &lt;br&gt;entry" style="shape=hexagon;perimeter=hexagonPerimeter2;whiteSpace=wrap;html=1;fixedSize=1;labelBackgroundColor=none;fillColor=#e1d5e7;strokeColor=#9673a6;" parent="1" vertex="1">
          <mxGeometry x="260" y="640" width="80" height="50" as="geometry" />
        </mxCell>
        <mxCell id="HPVV4rrdQAXOIrdfXkmh-62" value="" style="endArrow=classic;html=1;exitX=0;exitY=0.5;exitDx=0;exitDy=0;entryX=0.55;entryY=0.95;entryDx=0;entryDy=0;entryPerimeter=0;" parent="1" source="HPVV4rrdQAXOIrdfXkmh-36" target="HPVV4rrdQAXOIrdfXkmh-63" edge="1">
          <mxGeometry width="50" height="50" relative="1" as="geometry">
            <mxPoint x="60" y="380" as="sourcePoint" />
            <mxPoint x="70" y="390" as="targetPoint" />
            <Array as="points" />
          </mxGeometry>
        </mxCell>
        <mxCell id="HPVV4rrdQAXOIrdfXkmh-67" value="" style="edgeStyle=orthogonalEdgeStyle;rounded=0;orthogonalLoop=1;jettySize=auto;html=1;fontColor=#000000;exitX=0.506;exitY=0.138;exitDx=0;exitDy=0;exitPerimeter=0;" parent="1" source="HPVV4rrdQAXOIrdfXkmh-63" target="HPVV4rrdQAXOIrdfXkmh-66" edge="1">
          <mxGeometry relative="1" as="geometry" />
        </mxCell>
        <mxCell id="HPVV4rrdQAXOIrdfXkmh-69" value="" style="edgeStyle=orthogonalEdgeStyle;rounded=0;orthogonalLoop=1;jettySize=auto;html=1;fontColor=#000000;exitX=0.875;exitY=0.5;exitDx=0;exitDy=0;exitPerimeter=0;" parent="1" source="HPVV4rrdQAXOIrdfXkmh-63" edge="1">
          <mxGeometry relative="1" as="geometry">
            <mxPoint x="180" y="350" as="targetPoint" />
          </mxGeometry>
        </mxCell>
        <mxCell id="HPVV4rrdQAXOIrdfXkmh-63" value="Replace missing&amp;nbsp;&lt;br&gt;values" style="ellipse;shape=cloud;whiteSpace=wrap;html=1;labelBackgroundColor=none;fillColor=#fff2cc;strokeColor=#d6b656;" parent="1" vertex="1">
          <mxGeometry x="10" y="310" width="120" height="80" as="geometry" />
        </mxCell>
        <mxCell id="HPVV4rrdQAXOIrdfXkmh-66" value="With average&lt;br&gt;(for numerical data)" style="shape=hexagon;perimeter=hexagonPerimeter2;whiteSpace=wrap;html=1;fixedSize=1;fillColor=#e1d5e7;strokeColor=#9673a6;" parent="1" vertex="1">
          <mxGeometry x="10" y="170" width="120" height="60" as="geometry" />
        </mxCell>
        <mxCell id="HPVV4rrdQAXOIrdfXkmh-68" value="With frequency&lt;br&gt;(in object/string data)" style="shape=hexagon;perimeter=hexagonPerimeter2;whiteSpace=wrap;html=1;fixedSize=1;fillColor=#e1d5e7;strokeColor=#9673a6;" parent="1" vertex="1">
          <mxGeometry x="180" y="320" width="110" height="60" as="geometry" />
        </mxCell>
        <mxCell id="HPVV4rrdQAXOIrdfXkmh-73" value="" style="edgeStyle=orthogonalEdgeStyle;rounded=0;orthogonalLoop=1;jettySize=auto;html=1;fontColor=#000000;exitX=0.88;exitY=0.25;exitDx=0;exitDy=0;exitPerimeter=0;" parent="1" source="HPVV4rrdQAXOIrdfXkmh-63" edge="1">
          <mxGeometry relative="1" as="geometry">
            <mxPoint x="98.68000000000006" y="232.31999999999994" as="sourcePoint" />
            <mxPoint x="160" y="250" as="targetPoint" />
            <Array as="points">
              <mxPoint x="116" y="250" />
            </Array>
          </mxGeometry>
        </mxCell>
        <mxCell id="HPVV4rrdQAXOIrdfXkmh-74" value="With other &lt;br&gt;functions" style="shape=hexagon;perimeter=hexagonPerimeter2;whiteSpace=wrap;html=1;fixedSize=1;fillColor=#e1d5e7;strokeColor=#9673a6;" parent="1" vertex="1">
          <mxGeometry x="160" y="220" width="110" height="60" as="geometry" />
        </mxCell>
        <mxCell id="HPVV4rrdQAXOIrdfXkmh-75" value="Keep missing &lt;br&gt;values" style="ellipse;shape=cloud;whiteSpace=wrap;html=1;rounded=1;strokeColor=#b85450;fillColor=#f8cecc;" parent="1" vertex="1">
          <mxGeometry y="435" width="120" height="80" as="geometry" />
        </mxCell>
        <mxCell id="htr4k9ovNGDv8slnHkLP-6" value="" style="edgeStyle=orthogonalEdgeStyle;rounded=0;orthogonalLoop=1;jettySize=auto;html=1;fontColor=#000000;entryX=0.625;entryY=0.2;entryDx=0;entryDy=0;entryPerimeter=0;" edge="1" parent="1" source="htr4k9ovNGDv8slnHkLP-4" target="htr4k9ovNGDv8slnHkLP-5">
          <mxGeometry relative="1" as="geometry">
            <Array as="points">
              <mxPoint x="415" y="590" />
              <mxPoint x="455" y="590" />
            </Array>
          </mxGeometry>
        </mxCell>
        <mxCell id="htr4k9ovNGDv8slnHkLP-4" value="Data Formatting" style="rounded=1;whiteSpace=wrap;html=1;fillColor=#f8cecc;strokeColor=#b85450;" vertex="1" parent="1">
          <mxGeometry x="360" y="550" width="105" height="30" as="geometry" />
        </mxCell>
        <mxCell id="htr4k9ovNGDv8slnHkLP-5" value="Incorrect &lt;br&gt;DataTypes" style="ellipse;shape=cloud;whiteSpace=wrap;html=1;rounded=1;strokeColor=#d6b656;fillColor=#fff2cc;" vertex="1" parent="1">
          <mxGeometry x="380" y="590" width="120" height="80" as="geometry" />
        </mxCell>
        <mxCell id="htr4k9ovNGDv8slnHkLP-7" value="" style="shape=flexArrow;endArrow=classic;html=1;fontColor=#000000;exitX=0.55;exitY=0.95;exitDx=0;exitDy=0;exitPerimeter=0;" edge="1" parent="1" source="htr4k9ovNGDv8slnHkLP-5">
          <mxGeometry width="50" height="50" relative="1" as="geometry">
            <mxPoint x="420" y="760" as="sourcePoint" />
            <mxPoint x="449" y="700" as="targetPoint" />
          </mxGeometry>
        </mxCell>
        <mxCell id="htr4k9ovNGDv8slnHkLP-8" value="Use df.astype(&quot;int/float/object&quot;)" style="shape=hexagon;perimeter=hexagonPerimeter2;whiteSpace=wrap;html=1;fixedSize=1;labelBackgroundColor=none;fillColor=#e1d5e7;strokeColor=#9673a6;" vertex="1" parent="1">
          <mxGeometry x="360" y="700" width="175" height="70" as="geometry" />
        </mxCell>
        <mxCell id="htr4k9ovNGDv8slnHkLP-9" value="" style="endArrow=classic;html=1;exitX=1;exitY=0;exitDx=0;exitDy=0;entryX=0.31;entryY=0.8;entryDx=0;entryDy=0;entryPerimeter=0;" edge="1" parent="1" source="HPVV4rrdQAXOIrdfXkmh-27" target="htr4k9ovNGDv8slnHkLP-10">
          <mxGeometry width="50" height="50" relative="1" as="geometry">
            <mxPoint x="590" y="340" as="sourcePoint" />
            <mxPoint x="620" y="290" as="targetPoint" />
            <Array as="points" />
          </mxGeometry>
        </mxCell>
        <mxCell id="htr4k9ovNGDv8slnHkLP-12" value="" style="edgeStyle=orthogonalEdgeStyle;rounded=0;orthogonalLoop=1;jettySize=auto;html=1;fontColor=#000000;exitX=0.875;exitY=0.5;exitDx=0;exitDy=0;exitPerimeter=0;" edge="1" parent="1" source="htr4k9ovNGDv8slnHkLP-10" target="htr4k9ovNGDv8slnHkLP-11">
          <mxGeometry relative="1" as="geometry" />
        </mxCell>
        <mxCell id="htr4k9ovNGDv8slnHkLP-10" value="Simple Scaling" style="ellipse;shape=cloud;whiteSpace=wrap;html=1;labelBackgroundColor=none;fillColor=#fff2cc;strokeColor=#d6b656;" vertex="1" parent="1">
          <mxGeometry x="560" y="230" width="120" height="80" as="geometry" />
        </mxCell>
        <mxCell id="htr4k9ovNGDv8slnHkLP-14" value="" style="edgeStyle=orthogonalEdgeStyle;rounded=0;orthogonalLoop=1;jettySize=auto;html=1;fontColor=#000000;" edge="1" parent="1" source="htr4k9ovNGDv8slnHkLP-11" target="htr4k9ovNGDv8slnHkLP-13">
          <mxGeometry relative="1" as="geometry" />
        </mxCell>
        <mxCell id="htr4k9ovNGDv8slnHkLP-11" value="x&lt;sub&gt;new&lt;/sub&gt; = x&lt;sub&gt;old&lt;/sub&gt;/x&lt;sub&gt;max&lt;/sub&gt;" style="shape=hexagon;perimeter=hexagonPerimeter2;whiteSpace=wrap;html=1;fixedSize=1;strokeColor=#9673a6;fillColor=#e1d5e7;" vertex="1" parent="1">
          <mxGeometry x="700" y="230" width="110" height="80" as="geometry" />
        </mxCell>
        <mxCell id="htr4k9ovNGDv8slnHkLP-13" value="df[&quot;column-name&quot;] = df[&quot;column-name&quot;] / df[&quot;column-name&quot;] .max()&lt;br&gt;&amp;nbsp;" style="shape=parallelogram;perimeter=parallelogramPerimeter;whiteSpace=wrap;html=1;fixedSize=1;strokeColor=#36393d;fillColor=#ffff88;" vertex="1" parent="1">
          <mxGeometry x="830" y="250" width="400" height="40" as="geometry" />
        </mxCell>
        <mxCell id="htr4k9ovNGDv8slnHkLP-15" value="Data Analysis in Python(MindMap)" style="text;html=1;strokeColor=none;fillColor=none;align=center;verticalAlign=middle;whiteSpace=wrap;rounded=0;labelBackgroundColor=none;fontColor=#000000;fontSize=14;fontFamily=Verdana;" vertex="1" parent="1">
          <mxGeometry x="310" y="-190" width="280" height="20" as="geometry" />
        </mxCell>
        <mxCell id="htr4k9ovNGDv8slnHkLP-17" value="" style="endArrow=classic;html=1;exitX=1;exitY=0.5;exitDx=0;exitDy=0;entryX=0.07;entryY=0.4;entryDx=0;entryDy=0;entryPerimeter=0;" edge="1" parent="1" target="htr4k9ovNGDv8slnHkLP-19" source="HPVV4rrdQAXOIrdfXkmh-27">
          <mxGeometry width="50" height="50" relative="1" as="geometry">
            <mxPoint x="480" y="330" as="sourcePoint" />
            <mxPoint x="665" y="395" as="targetPoint" />
            <Array as="points" />
          </mxGeometry>
        </mxCell>
        <mxCell id="htr4k9ovNGDv8slnHkLP-18" value="" style="edgeStyle=orthogonalEdgeStyle;rounded=0;orthogonalLoop=1;jettySize=auto;html=1;fontColor=#000000;exitX=0.875;exitY=0.5;exitDx=0;exitDy=0;exitPerimeter=0;" edge="1" parent="1" source="htr4k9ovNGDv8slnHkLP-19" target="htr4k9ovNGDv8slnHkLP-21">
          <mxGeometry relative="1" as="geometry" />
        </mxCell>
        <mxCell id="htr4k9ovNGDv8slnHkLP-19" value="Min-Max" style="ellipse;shape=cloud;whiteSpace=wrap;html=1;labelBackgroundColor=none;fillColor=#fff2cc;strokeColor=#d6b656;" vertex="1" parent="1">
          <mxGeometry x="605" y="335" width="120" height="80" as="geometry" />
        </mxCell>
        <mxCell id="htr4k9ovNGDv8slnHkLP-20" value="" style="edgeStyle=orthogonalEdgeStyle;rounded=0;orthogonalLoop=1;jettySize=auto;html=1;fontColor=#000000;" edge="1" parent="1" source="htr4k9ovNGDv8slnHkLP-21" target="htr4k9ovNGDv8slnHkLP-22">
          <mxGeometry relative="1" as="geometry" />
        </mxCell>
        <mxCell id="htr4k9ovNGDv8slnHkLP-21" value="x&lt;sub&gt;new&lt;/sub&gt; = x&lt;sub&gt;old &lt;/sub&gt;- x&lt;sub&gt;min&lt;/sub&gt;/ x&lt;sub&gt;max -&lt;/sub&gt; x&lt;sub&gt;min&lt;/sub&gt;" style="shape=hexagon;perimeter=hexagonPerimeter2;whiteSpace=wrap;html=1;fixedSize=1;strokeColor=#9673a6;fillColor=#e1d5e7;" vertex="1" parent="1">
          <mxGeometry x="745" y="322.5" width="165" height="105" as="geometry" />
        </mxCell>
        <mxCell id="htr4k9ovNGDv8slnHkLP-22" value="df[&quot;column-name&quot;] = df[&quot;column-name&quot;] -df[&quot;column-name&quot;] .min() / df[&quot;column-name&quot;] .max() - df[&quot;column-name&quot;] .min()&lt;br&gt;&amp;nbsp;" style="shape=parallelogram;perimeter=parallelogramPerimeter;whiteSpace=wrap;html=1;fixedSize=1;strokeColor=#36393d;fillColor=#ffff88;" vertex="1" parent="1">
          <mxGeometry x="920" y="355" width="400" height="40" as="geometry" />
        </mxCell>
      </root>
    </mxGraphModel>
  </diagram>
</mxfile>
